<?xml version="1.0" encoding="utf-8"?>
<!-- Generator: Adobe Illustrator 16.0.0, SVG Export Plug-In . SVG Version: 6.00 Build 0)  -->
<!DOCTYPE svg PUBLIC "-//W3C//DTD SVG 1.1//EN" "http://www.w3.org/Graphics/SVG/1.1/DTD/svg11.dtd">
<svg version="1.1" id="Layer_1" xmlns="http://www.w3.org/2000/svg" xmlns:xlink="http://www.w3.org/1999/xlink" x="0px" y="0px"
	 width="40px" height="40px" viewBox="0 0 40 40" enable-background="new 0 0 40 40" xml:space="preserve">
<path fill-rule="evenodd" clip-rule="evenodd" fill="#E9E4E0" d="M20,0c11.046,0,20,8.954,20,20s-8.954,20-20,20S0,31.046,0,20
	S8.954,0,20,0z"/>
<g>
	<g>
		<path fill="#C8AA6A" d="M19.207,16.583l-6.338,7.431h0.001c-0.765,0.867-0.733,2.191,0.096,3.02
			c0.829,0.829,2.152,0.861,3.02,0.097l7.431-6.338c-0.997-0.289-1.905-0.824-2.645-1.564C20.031,18.488,19.496,17.58,19.207,16.583
			z M17.806,23.131l-0.937-0.937l1.873-1.874l0.937,0.938L17.806,23.131z M11.605,27.458L10,29.063L10.937,30l1.605-1.605
			c-0.181-0.123-0.353-0.265-0.513-0.424C11.869,27.811,11.729,27.639,11.605,27.458z M28.577,11.422
			c-1.897-1.896-4.973-1.896-6.869,0c-0.088,0.088-0.172,0.179-0.252,0.271c0.014,0.272,0.107,0.654,0.317,1.128
			c0.439,0.989,1.248,2.1,2.276,3.128s2.139,1.837,3.128,2.276c0.474,0.21,0.855,0.304,1.127,0.317
			c0.094-0.08,0.184-0.164,0.272-0.252C30.474,16.395,30.474,13.318,28.577,11.422z M23.113,16.886
			c-1.141-1.14-2.046-2.393-2.55-3.526c-0.009-0.019-0.016-0.037-0.024-0.056c-0.569,1.693-0.18,3.639,1.169,4.987
			s3.294,1.738,4.987,1.169c-0.019-0.009-0.037-0.016-0.056-0.024C25.506,18.932,24.253,18.026,23.113,16.886z"/>
	</g>
</g>
</svg>
